<svg width="82" height="46" viewBox="0 0 82 46" fill="none" xmlns="http://www.w3.org/2000/svg">
<path d="M72.6712 19.92C74.8197 17.7833 77.2003 18.4118 77.2003 20.4842C77.2003 22.5069 74.7609 24.6904 71.8189 26.3828C71.5338 26.5436 71.1958 26.7307 70.8549 26.8973C70.7402 26.3887 70.6756 25.8245 70.6756 25.1961C70.6756 23.4686 71.4133 21.1711 72.6712 19.92ZM61.2118 41.7315C58.3579 44.5698 54.7106 40.9511 58.9663 36.7186C59.9303 35.7598 61.5116 34.7046 63.1574 33.743C64.095 36.058 63.3514 39.5948 61.2118 41.7315ZM43.0336 30.3669C40.844 30.3669 39.4274 27.7566 39.8653 24.5326C40.2944 21.3085 42.4194 18.6982 44.606 18.6982C46.6311 18.6982 47.9948 20.9402 47.839 23.834C47.7832 24.2519 47.7332 24.6553 47.6921 25.0441C47.116 28.0226 45.0998 30.3669 43.0336 30.3669ZM14.1308 29.2941C13.4166 30.0044 12.5437 30.3815 11.6591 30.3815C10.8332 30.3815 10.119 30.0103 9.52826 29.4228C7.50324 27.4088 7.67958 22.466 10.2807 19.8703C11.0184 19.1367 11.9089 18.7099 12.8259 18.7099C13.6459 18.7099 14.366 19.0724 14.9567 19.6599C16.8642 21.5569 16.9759 26.4647 14.1308 29.2941ZM81.8852 30.3493C81.8852 30.3493 81.074 29.2211 80.8242 28.8995C80.6537 28.6891 80.4421 28.4319 79.8837 28.8118C78.6522 29.6332 77.265 30.3844 75.5544 30.3844C74.2495 30.3844 73.1062 30.0541 72.2568 29.338C72.6124 29.1772 72.9857 28.9989 73.3678 28.7972C75.3869 27.7099 77.071 26.3302 77.8822 25.5235C81.8117 21.6154 80.5802 15.7869 75.7925 15.7869C71.2693 15.7869 67.6954 20.1714 67.6954 25.0412C67.6954 25.7748 67.7835 26.8213 68.1009 27.9349C67.8335 28.0635 66.0436 28.9258 63.8951 30.1038C61.876 28.5955 58.7253 29.2737 58.7253 29.2737C61.6497 25.1464 66.0524 18.6982 66.4257 18.1662C66.6931 17.7862 66.652 17.4092 66.3933 16.8129C66.0612 16.0967 65.7291 15.9652 65.2736 15.9652H56.1331C55.8333 15.9652 55.5981 16.1026 55.51 16.4417C55.4277 16.772 55.2337 17.9236 55.2014 18.3182C55.1602 18.7128 55.5335 18.9554 55.9214 18.9554H62.5432L56.5533 27.476C56.5122 27.5082 56.4711 27.5491 56.4387 27.6046C55.5717 28.8528 54.2344 30.6036 52.6297 30.6036C51.6333 30.6036 50.4019 29.8934 50.4019 27.5725C50.4019 25.2984 51.3247 20.4959 51.9978 16.7544C52.0713 16.351 51.9331 15.9564 51.2836 15.9564H49.6642C49.2909 15.9564 49.0793 16.1815 49.0235 16.4972C48.9265 17.0701 48.8295 17.6342 48.7325 18.175C47.9301 16.6521 46.6487 15.7898 44.7941 15.7898C43.0748 15.7898 41.3995 16.427 40.0299 17.7804C36.6088 21.1828 37.2584 26.7277 34.3075 29.6624C33.0349 30.9281 31.5918 30.5423 31.5918 28.0519C31.5918 25.2078 32.6852 22.0392 33.9431 19.0314C34.1606 18.4995 33.9255 18.0552 33.6933 17.7102C33.3612 17.2279 33.2318 16.9678 32.6323 16.9678C31.7006 16.9678 30.2105 17.5553 27.2273 17.5553C26.5954 17.5553 25.987 17.5319 25.4433 17.491C25.4756 17.0467 25.4845 16.7486 25.4933 16.6375C25.5109 16.2195 25.364 15.9535 24.9172 15.9535H23.3948C22.8422 15.9535 22.707 16.2107 22.6424 16.6375C22.3837 18.4498 21.89 25.1084 18.5336 28.4465C18.1456 28.8323 17.9105 28.9551 17.9105 28.9551C18.7452 27.327 19.1978 25.1902 19.1978 23.4978C19.1978 18.7333 16.3616 15.784 12.8024 15.784C11.7149 15.784 10.5657 16.1318 9.48711 16.7983C9.98969 13.8957 10.4511 11.1802 10.6128 10.2624C10.7509 9.48781 10.4658 9.08444 10.263 8.76291C9.91915 8.23384 9.61643 8 9.16381 8H3.9117C3.61191 8 3.38561 8.21046 3.31213 8.54076C3.22396 8.92659 3.03586 9.9438 3.01234 10.4115C2.99471 10.8236 3.2798 10.9756 3.61191 10.9756H7.45328C6.83607 14.7229 5.66926 21.9866 5.31363 23.8076C4.86983 26.1285 3.20632 28.9726 0.411268 29.981C0.0615193 30.1097 -0.082495 30.4253 0.046824 30.7966C0.176143 31.1678 0.655211 32.1353 0.799225 32.3838C0.946179 32.641 1.26948 32.8105 1.57808 32.7053C3.02998 32.1967 4.35844 31.3753 5.41062 30.3347C5.66926 30.0775 5.92202 29.7852 6.16302 29.4724C7.41801 32.2785 9.97206 33.3016 12.5908 33.3016C15.5475 33.3016 18.7422 32.2785 20.9789 30.0454C23.5976 27.4497 24.6909 23.147 25.1523 20.0983C25.8019 20.186 26.5396 20.2591 27.242 20.2591C29.0407 20.2591 30.5485 19.8791 30.5485 19.8791C30.5485 19.8791 28.7351 24.667 28.7351 28.198C28.7351 32.1791 30.6484 33.3074 32.7704 33.3074C34.9512 33.3074 36.4824 31.6793 37.5758 29.6654C37.8609 30.2938 38.2812 31.045 38.8572 31.615C39.8447 32.5971 41.0703 33.3074 42.8367 33.3074C44.8559 33.3074 46.5899 32.147 47.8214 30.3669C48.0389 31.1152 48.3798 31.7465 48.8412 32.2055C49.4643 32.8251 50.6076 33.3104 52.0419 33.3104C54.5048 33.3104 55.9332 31.4718 59.7657 31.4718C60.2507 31.4718 60.6886 31.5449 61.0854 31.6822C59.3278 32.7462 57.6584 33.892 56.6356 34.9063C53.4761 38.0486 53.3292 42.1846 55.4042 44.2483C57.9171 46.7474 61.4998 45.4964 63.7364 43.272C66.3551 40.6676 67.1164 35.7452 65.5998 32.375C67.4308 31.4162 68.9621 30.706 69.3265 30.5364C70.4698 32.0915 72.3655 33.3104 75.4927 33.3104C77.7293 33.3104 79.9836 32.5211 81.7412 31.1999C82.0233 31.0129 82.0792 30.6241 81.8852 30.3493Z" fill="#111827"/>
</svg>
