<svg width="18" height="20" viewBox="0 0 18 20" fill="none" xmlns="http://www.w3.org/2000/svg">
<path d="M6.22266 0.211924C6.52734 -0.0732321 7 -0.0693259 7.30469 0.21583C8.38281 1.22755 9.39453 2.31739 10.3398 3.49708C10.7695 2.93458 11.2578 2.3213 11.7852 1.8213C12.0938 1.53224 12.5703 1.53224 12.8789 1.82521C14.2305 3.11427 15.375 4.81739 16.1797 6.43458C16.9727 8.02833 17.5 9.65724 17.5 10.8057C17.5 15.79 13.6016 20.001 8.75 20.001C3.84375 20.001 0 15.7861 0 10.8018C0 9.30177 0.695313 7.46974 1.77344 5.65724C2.86328 3.81739 4.40234 1.89942 6.22266 0.211924ZM8.81641 16.251C9.80469 16.251 10.6797 15.9775 11.5039 15.4307C13.1484 14.2822 13.5898 11.9854 12.6016 10.1807C12.4258 9.82911 11.9766 9.80567 11.7227 10.1025L10.7383 11.2471C10.4805 11.544 10.0156 11.5361 9.77344 11.2275C9.12891 10.4072 7.97656 8.94239 7.32031 8.11036C7.07422 7.79786 6.60547 7.79396 6.35547 8.10645C5.03516 9.76661 4.37109 10.8135 4.37109 11.9893C4.375 14.665 6.35156 16.251 8.81641 16.251Z" fill="#111827"/>
</svg>
