<svg width="111" height="47" viewBox="0 0 111 47" fill="none" xmlns="http://www.w3.org/2000/svg">
<path d="M47.3838 25.1157C47.3838 30.328 43.2932 34.1689 38.273 34.1689C33.2528 34.1689 29.1621 30.328 29.1621 25.1157C29.1621 19.8666 33.2528 16.0625 38.273 16.0625C43.2932 16.0625 47.3838 19.8666 47.3838 25.1157ZM43.3955 25.1157C43.3955 21.8585 41.0247 19.6299 38.273 19.6299C35.5213 19.6299 33.1504 21.8585 33.1504 25.1157C33.1504 28.3403 35.5213 30.6015 38.273 30.6015C41.0247 30.6015 43.3955 28.3362 43.3955 25.1157Z" fill="#111827"/>
<path d="M67.0389 25.1157C67.0389 30.328 62.9482 34.1689 57.9281 34.1689C52.9079 34.1689 48.8172 30.328 48.8172 25.1157C48.8172 19.8707 52.9079 16.0625 57.9281 16.0625C62.9482 16.0625 67.0389 19.8666 67.0389 25.1157ZM63.0506 25.1157C63.0506 21.8585 60.6797 19.6299 57.9281 19.6299C55.1764 19.6299 52.8055 21.8585 52.8055 25.1157C52.8055 28.3403 55.1764 30.6015 57.9281 30.6015C60.6797 30.6015 63.0506 28.3362 63.0506 25.1157Z" fill="#111827"/>
<path d="M85.8751 16.6094V32.8628C85.8751 39.5486 81.9196 42.2793 77.2434 42.2793C72.8415 42.2793 70.1922 39.3445 69.193 36.9445L72.6654 35.5037C73.2837 36.9771 74.7988 38.716 77.2393 38.716C80.2325 38.716 82.0875 36.8751 82.0875 33.4097V32.1077H81.9482C81.0556 33.2057 79.3358 34.1649 77.1656 34.1649C72.6245 34.1649 68.4642 30.2219 68.4642 25.1484C68.4642 20.0381 72.6245 16.0625 77.1656 16.0625C79.3317 16.0625 81.0515 17.0217 81.9482 18.087H82.0875V16.6135H85.8751V16.6094ZM82.37 25.1484C82.37 21.9606 80.2366 19.6299 77.5218 19.6299C74.7701 19.6299 72.4648 21.9606 72.4648 25.1484C72.4648 28.3035 74.7701 30.6015 77.5218 30.6015C80.2366 30.6015 82.37 28.3035 82.37 25.1484Z" fill="#111827"/>
<path d="M92.1192 7.08289V33.614H88.2291V7.08289H92.1192Z" fill="#111827"/>
<path d="M107.278 28.0954L110.374 30.1526C109.375 31.6261 106.967 34.1649 102.807 34.1649C97.6475 34.1649 93.7944 30.1893 93.7944 25.1117C93.7944 19.7279 97.6803 16.0585 102.361 16.0585C107.074 16.0585 109.379 19.7973 110.132 21.8178L110.546 22.8463L98.4051 27.8587C99.3346 29.675 100.78 30.6016 102.807 30.6016C104.838 30.6016 106.247 29.6056 107.278 28.0954ZM97.7499 24.8382L105.866 21.479C105.419 20.3483 104.076 19.5606 102.496 19.5606C100.469 19.5606 97.6475 21.3443 97.7499 24.8382Z" fill="#111827"/>
<path d="M14.4373 22.7605V18.9197H27.4218C27.5487 19.5891 27.6143 20.3809 27.6143 21.2381C27.6143 24.1197 26.824 27.6831 24.277 30.2219C21.7997 32.7934 18.6344 34.1648 14.4414 34.1648C6.66953 34.1648 0.134277 27.8545 0.134277 20.1074C0.134277 12.3604 6.66953 6.05005 14.4414 6.05005C18.7409 6.05005 21.8038 7.73171 24.105 9.92358L21.3861 12.6338C19.7359 11.091 17.5002 9.89093 14.4373 9.89093C8.76195 9.89093 4.32323 14.4502 4.32323 20.1074C4.32323 25.7647 8.76195 30.3239 14.4373 30.3239C18.1185 30.3239 20.215 28.8504 21.5581 27.5116C22.6473 26.4259 23.3639 24.8749 23.6464 22.7565L14.4373 22.7605Z" fill="#111827"/>
</svg>
