<svg width="14" height="16" viewBox="0 0 14 16" fill="none" xmlns="http://www.w3.org/2000/svg">
<g clip-path="url(#clip0_2027_271)">
<path d="M14 16H0V0H14V16Z" stroke="#E5E7EB"/>
<path d="M3.85714 6.00021C3.85714 4.81628 4.81607 3.85735 6 3.85735C6.85446 3.85735 7.59107 4.35557 7.93661 5.08146C8.14018 5.51003 8.65179 5.69217 9.07768 5.4886C9.50357 5.28503 9.68839 4.77342 9.48482 4.34753C8.86607 3.04575 7.54018 2.14307 6 2.14307C3.87054 2.14307 2.14286 3.87074 2.14286 6.00021V7.28592H1.71429C0.76875 7.28592 0 8.05467 0 9.00021V14.1431C0 15.0886 0.76875 15.8574 1.71429 15.8574H10.2857C11.2312 15.8574 12 15.0886 12 14.1431V9.00021C12 8.05467 11.2312 7.28592 10.2857 7.28592H3.85714V6.00021Z" fill="#9CA3AF"/>
</g>
<defs>
<clipPath id="clip0_2027_271">
<rect width="14" height="16" fill="white"/>
</clipPath>
</defs>
</svg>
