<svg width="139" height="47" viewBox="0 0 139 47" fill="none" xmlns="http://www.w3.org/2000/svg">
<g clip-path="url(#clip0_2025_508)">
<path d="M20.9222 3.01489C9.40706 3.01489 0.0717773 12.2212 0.0717773 23.5775C0.0717773 34.9343 9.40706 44.1399 20.9222 44.1399C32.4385 44.1399 41.7728 34.9343 41.7728 23.5775C41.7728 12.2219 32.4385 3.01587 20.9219 3.01587L20.9222 3.01489ZM30.484 32.6721C30.1105 33.2761 29.3088 33.4677 28.6963 33.0969C23.8009 30.1479 17.6381 29.48 10.3803 31.1153C9.68093 31.2725 8.98379 30.8403 8.82444 30.1503C8.66435 29.4603 9.10081 28.7728 9.80194 28.6157C17.7444 26.8261 24.5573 27.5966 30.0533 30.9091C30.6658 31.2798 30.86 32.0681 30.484 32.6721ZM33.0361 27.0731C32.5655 27.8274 31.5646 28.0656 30.8002 27.6015C25.1957 24.2042 16.6524 23.2202 10.0233 25.2048C9.16355 25.4609 8.25552 24.983 7.99459 24.1366C7.73565 23.2888 8.22042 22.395 9.07865 22.1371C16.6509 19.8712 26.0646 20.9688 32.5008 24.8693C33.2651 25.3334 33.5066 26.3205 33.0361 27.0734V27.0731ZM33.2552 21.2429C26.5352 17.3065 15.4481 16.9445 9.03209 18.865C8.00181 19.1731 6.91227 18.5995 6.60005 17.5835C6.28783 16.5669 6.86895 15.4931 7.89998 15.1842C15.2651 12.9792 27.5087 13.4052 35.2455 17.9348C36.1742 18.4773 36.478 19.6576 35.9277 20.5703C35.38 21.4842 34.1799 21.7855 33.2562 21.2429H33.2552ZM56.7988 21.9972C53.1985 21.1505 52.5586 20.5563 52.5586 19.3077C52.5586 18.1281 53.684 17.3342 55.3597 17.3342C56.983 17.3342 58.5914 17.937 60.2795 19.178C60.3293 19.2156 60.394 19.2306 60.4563 19.2208C60.521 19.2114 60.5758 19.1773 60.6132 19.126L62.371 16.6823C62.4432 16.5816 62.4232 16.4429 62.3261 16.366C60.3169 14.7766 58.0561 14.0039 55.4119 14.0039C51.5254 14.0039 48.809 16.3044 48.809 19.596C48.809 23.1257 51.1519 24.3755 55.2003 25.3403C58.6437 26.1229 59.2263 26.7785 59.2263 27.9502C59.2263 29.2492 58.0511 30.057 56.1589 30.057C54.0575 30.057 52.342 29.3572 50.4249 27.7219C50.3776 27.6801 50.3128 27.6629 50.2531 27.6654C50.1883 27.6703 50.1311 27.6998 50.0912 27.7464L48.1193 30.0595C48.0371 30.1577 48.0471 30.3001 48.1417 30.3836C50.3726 32.348 53.1163 33.3842 56.0792 33.3842C60.2671 33.3842 62.9735 31.1276 62.9735 27.6335C62.981 24.6852 61.1908 23.0523 56.8062 22.0004L56.7988 21.9972ZM72.4497 18.4957C70.6346 18.4957 69.1457 19.2009 67.9158 20.6459V19.0194C67.9158 18.891 67.8112 18.7864 67.6817 18.7864H64.4574C64.3279 18.7864 64.2234 18.891 64.2234 19.0194V37.092C64.2234 37.2196 64.3279 37.3252 64.4574 37.3252H67.6817C67.8112 37.3252 67.9158 37.2196 67.9158 37.092V31.3879C69.1457 32.7458 70.6346 33.4112 72.4497 33.4112C75.8234 33.4112 79.2394 30.8501 79.2394 25.9542C79.2444 21.0572 75.8284 18.4954 72.4522 18.4954L72.4497 18.4957ZM75.4897 25.9542C75.4897 28.4462 73.9336 30.1872 71.7028 30.1872C69.4993 30.1872 67.8361 28.3677 67.8361 25.9542C67.8361 23.5404 69.4993 21.7214 71.7028 21.7214C73.8963 21.7212 75.4897 23.5009 75.4897 25.9539V25.9542ZM87.9911 18.4957C83.6463 18.4957 80.2428 21.7948 80.2428 26.0075C80.2428 30.1749 83.6239 33.4382 87.9388 33.4382C92.2984 33.4382 95.712 30.1503 95.712 25.9542C95.712 21.7723 92.3208 18.4962 87.9911 18.4962V18.4957ZM87.9911 30.2117C85.6805 30.2117 83.9377 28.3799 83.9377 25.9529C83.9377 23.5149 85.6208 21.7457 87.9388 21.7457C90.2643 21.7457 92.0171 23.5768 92.0171 26.0062C92.0171 28.4438 90.324 30.2117 87.9911 30.2117ZM104.989 18.7864H101.441V15.2098C101.441 15.0816 101.336 14.977 101.207 14.977H97.9827C97.8532 14.977 97.7461 15.0816 97.7461 15.2098V18.7864H96.1975C96.068 18.7864 95.9634 18.891 95.9634 19.0194V21.7516C95.9634 21.8798 96.068 21.9846 96.1975 21.9846H97.7461V29.0552C97.7461 31.9109 99.1877 33.3596 102.034 33.3596C103.189 33.3596 104.147 33.1239 105.051 32.6181C105.126 32.5788 105.171 32.5002 105.171 32.4167V29.8139C105.171 29.7354 105.128 29.6592 105.059 29.6175C104.989 29.5733 104.902 29.5708 104.83 29.6077C104.21 29.9146 103.61 30.057 102.937 30.057C101.904 30.057 101.441 29.5929 101.441 28.5567V21.9859H104.989C105.118 21.9859 105.223 21.8813 105.223 21.7529V19.0209C105.228 18.8925 105.123 18.7879 104.991 18.7879L104.989 18.7864ZM117.348 18.8004V18.3611C117.348 17.0688 117.851 16.4925 118.977 16.4925C119.649 16.4925 120.189 16.6241 120.794 16.823C120.869 16.8461 120.946 16.8345 121.006 16.7906C121.068 16.7466 121.103 16.6762 121.103 16.6015V13.9226C121.103 13.8202 121.038 13.7296 120.936 13.6994C120.299 13.512 119.482 13.3198 118.257 13.3198C115.282 13.3198 113.706 14.9733 113.706 18.0998V18.7726H112.157C112.028 18.7726 111.921 18.8772 111.921 19.0054V21.7516C111.921 21.8798 112.028 21.9846 112.157 21.9846H113.706V32.8882C113.706 33.0183 113.813 33.1214 113.942 33.1214H117.164C117.296 33.1214 117.401 33.0183 117.401 32.8882V21.9854H120.411L125.022 32.8882C124.499 34.0324 123.984 34.2608 123.282 34.2608C122.714 34.2608 122.114 34.0938 121.504 33.7623C121.447 33.7329 121.377 33.728 121.317 33.7451C121.255 33.7672 121.203 33.8114 121.178 33.8704L120.085 36.235C120.032 36.3479 120.077 36.4781 120.187 36.537C121.327 37.146 122.355 37.4062 123.628 37.4062C126.008 37.4062 127.325 36.3111 128.483 33.3695L134.075 19.1186C134.105 19.0469 134.095 18.9659 134.05 18.9023C134.008 18.8392 133.935 18.8011 133.858 18.8011H130.502C130.4 18.8011 130.31 18.8642 130.278 18.9573L126.84 28.6402L123.075 18.9509C123.04 18.8608 122.953 18.8011 122.856 18.8011H117.348V18.8004ZM110.183 18.7864H106.958C106.829 18.7864 106.722 18.891 106.722 19.0194V32.8882C106.722 33.0183 106.829 33.1214 106.958 33.1214H110.183C110.312 33.1214 110.419 33.0183 110.419 32.8882V19.0204C110.419 18.892 110.315 18.7874 110.183 18.7874V18.7864ZM108.589 12.4712C107.312 12.4712 106.276 13.4907 106.276 14.7501C106.276 16.0102 107.312 17.031 108.589 17.031C109.867 17.031 110.9 16.0102 110.9 14.7501C110.9 13.4909 109.864 12.4712 108.589 12.4712ZM136.829 23.2458C135.554 23.2458 134.56 22.2354 134.56 21.0084C134.56 19.7814 135.566 18.7594 136.841 18.7594C138.116 18.7594 139.109 19.7696 139.109 20.9956C139.109 22.2226 138.103 23.2458 136.829 23.2458ZM136.841 18.9819C135.678 18.9819 134.799 19.8928 134.799 21.0084C134.799 22.1234 135.673 23.0221 136.829 23.0221C137.991 23.0221 138.87 22.1118 138.87 20.9956C138.87 19.8806 137.996 18.9819 136.841 18.9819ZM137.344 21.2257L137.986 22.1116H137.444L136.866 21.2988H136.37V22.1116H135.917V19.7632H136.978C137.533 19.7632 137.897 20.0424 137.897 20.5123C137.899 20.8974 137.673 21.1326 137.346 21.2257H137.344ZM136.961 20.1661H136.37V20.9089H136.961C137.254 20.9089 137.431 20.7667 137.431 20.5371C137.431 20.2955 137.254 20.1661 136.961 20.1661Z" fill="#111827"/>
</g>
<defs>
<clipPath id="clip0_2025_508">
<rect width="139" height="47" fill="white"/>
</clipPath>
</defs>
</svg>
