<svg width="164" height="47" viewBox="0 0 164 47" fill="none" xmlns="http://www.w3.org/2000/svg">
<g clip-path="url(#clip0_2025_521)">
<path d="M50.517 29.4302C50.0449 29.5464 49.4548 29.6627 48.8646 29.6627C47.6843 29.6627 47.2122 28.965 47.2122 27.8023V22.5699H50.517C51.3432 22.5699 52.1694 21.9885 52.1694 21.0583C52.1694 20.1281 51.4613 19.5467 50.517 19.5467H47.2122V17.8025C47.2122 16.7561 46.386 16.0584 45.4417 16.0584C44.4975 16.0584 43.6713 16.8723 43.6713 17.8025V27.9186C43.6713 30.8255 45.0876 32.9184 48.3925 32.9184C49.3367 32.9184 50.6351 32.8022 51.5793 32.3371C52.4055 31.9882 52.6416 31.4068 52.6416 30.8255C52.6416 30.0115 51.8154 29.1976 50.517 29.4302ZM62.3201 19.0816C61.8479 18.9653 60.9037 18.849 60.0775 18.849C57.1267 18.849 55.4743 20.5932 55.4743 23.2675V31.1743C55.4743 32.1045 56.3005 32.9184 57.2447 32.9184C58.189 32.9184 59.0152 32.1045 59.0152 31.1743V23.9652C59.0152 22.8024 59.4873 22.3373 60.3135 22.3373C61.1397 22.3373 61.6119 22.5699 62.3201 22.5699C63.3823 22.5699 63.9725 21.6397 63.9725 20.942C63.8544 20.0118 63.3823 19.4304 62.3201 19.0816ZM72.1166 18.849C68.8117 18.849 66.4511 20.942 66.097 24.314C66.097 25.1279 65.979 26.5233 66.097 27.5697C66.3331 30.8255 68.6937 33.0347 72.2346 33.0347C73.887 33.0347 75.4214 32.6859 76.3657 32.1045C77.0738 31.6394 77.1919 31.1743 77.1919 30.7092C77.1919 29.779 76.3657 28.8488 74.9493 29.3139C74.1231 29.6627 73.1788 29.8953 72.2346 29.8953C70.5822 29.8953 69.2838 29.0813 69.2838 27.4535V27.1046H76.0116C77.1919 27.1046 77.782 26.407 77.782 25.3605V24.7791C77.9001 21.1746 75.5394 18.849 72.1166 18.849ZM74.3591 24.7791H69.4019C69.4019 23.035 70.2281 21.8722 72.1166 21.8722C73.769 21.8722 74.7132 22.9187 74.5952 24.4303C74.5952 24.6628 74.5952 24.7791 74.3591 24.7791ZM86.2802 18.849C82.9754 18.849 80.6147 20.942 80.2607 24.314C80.2607 25.1279 80.1426 26.5233 80.2607 27.5697C80.4967 30.8255 82.8573 33.0347 86.3982 33.0347C88.0507 33.0347 89.585 32.6859 90.5293 32.1045C91.2375 31.6394 91.3555 31.1743 91.3555 30.7092C91.3555 29.779 90.5293 28.8488 89.1129 29.3139C88.2867 29.6627 87.3425 29.8953 86.3982 29.8953C84.7458 29.8953 83.4475 29.0813 83.4475 27.4535V27.1046H90.1752C91.3555 27.1046 91.9457 26.407 91.9457 25.3605V24.7791C92.0637 21.1746 89.7031 18.849 86.2802 18.849ZM88.5228 24.7791H83.5655C83.5655 23.035 84.3917 21.8722 86.2802 21.8722C87.9326 21.8722 88.8769 22.9187 88.7588 24.4303C88.7588 24.6628 88.7588 24.7791 88.5228 24.7791ZM145.885 24.6628L143.997 24.1977C142.817 23.9652 142.463 23.6163 142.463 23.035C142.463 22.4536 143.053 21.9885 144.351 21.9885C145.059 21.9885 145.885 22.221 146.594 22.5699C147.42 23.035 148.364 22.9187 148.836 22.3373C149.426 21.7559 149.426 20.7094 148.718 20.0118C147.774 19.3141 146.122 18.849 144.469 18.849C141.4 18.849 139.158 20.3606 139.158 23.1512C139.158 25.3605 140.81 26.5233 142.935 27.1046C143.997 27.3372 143.879 27.3372 144.823 27.5697C145.885 27.8023 146.358 28.2674 146.358 28.7325C146.358 29.4302 145.767 29.8953 144.351 29.8953C143.171 29.8953 142.109 29.5464 141.282 29.0813C140.456 28.4999 139.512 28.7325 139.04 29.4302C138.568 30.1278 138.686 31.058 139.394 31.5231C140.338 32.3371 141.872 33.0347 144.351 33.0347C147.42 33.0347 149.781 31.4068 149.781 28.6162C149.781 26.5232 148.482 25.2442 145.885 24.6628ZM162.292 27.1046C163.472 27.1046 164.062 26.407 164.062 25.3605V24.7791C164.062 21.1746 161.702 18.849 158.279 18.849C154.974 18.849 152.613 20.942 152.259 24.314C152.259 25.1279 152.141 26.5233 152.259 27.5697C152.495 30.8255 154.856 33.0347 158.397 33.0347C160.049 33.0347 161.584 32.6859 162.528 32.1045C163.236 31.6394 163.354 31.1743 163.354 30.7092C163.354 29.779 162.528 28.8488 161.111 29.3139C160.285 29.6627 159.341 29.8953 158.397 29.8953C156.744 29.8953 155.446 29.0813 155.446 27.4535V27.1046H162.292ZM158.279 21.8722C159.931 21.8722 160.875 22.9187 160.757 24.4303C160.757 24.6628 160.639 24.7791 160.521 24.7791H155.564C155.564 23.035 156.508 21.8722 158.279 21.8722ZM115.08 18.849C111.539 18.849 108.942 21.0583 108.588 24.0815C108.47 25.1279 108.47 26.7558 108.588 27.8023C108.824 30.8255 111.539 33.0347 115.08 33.0347C118.621 33.0347 121.217 30.8255 121.453 27.8023C121.571 26.7558 121.571 25.2442 121.453 24.1977C121.217 21.0583 118.621 18.849 115.08 18.849ZM117.912 27.2209C117.794 28.7325 116.732 29.6627 115.08 29.6627C113.427 29.6627 112.365 28.6162 112.247 27.2209C112.247 26.5233 112.247 25.3605 112.247 24.6628C112.365 23.1512 113.427 22.221 115.08 22.221C116.732 22.221 117.794 23.2675 117.912 24.6628C118.03 25.3605 118.03 26.5233 117.912 27.2209ZM101.034 18.849C99.7357 18.849 98.3193 19.3141 97.8472 19.8955V16.1747C97.8472 15.1282 97.139 14.4305 96.1947 14.4305C95.2505 14.4305 94.5423 15.2445 94.5423 16.1747V31.1743C94.5423 32.1045 95.3685 32.9184 96.3128 32.9184C97.257 32.9184 97.9652 32.1045 97.9652 31.1743V23.3838C98.5554 22.8024 99.4996 22.3373 100.68 22.3373C102.096 22.3373 102.922 23.1512 102.922 24.7791V31.1743C102.922 32.2208 103.631 33.0347 104.575 33.0347C105.637 33.0347 106.345 32.2208 106.345 31.1743V24.5466C106.227 20.8257 104.339 18.849 101.034 18.849ZM134.082 18.9653C133.138 18.9653 132.312 19.7792 132.312 20.7094V28.965C131.722 29.3139 130.896 29.6627 129.833 29.6627C128.417 29.6627 127.355 28.8488 127.355 27.2209V20.7094C127.355 19.663 126.529 18.849 125.584 18.849C124.522 18.849 123.932 19.663 123.932 20.7094V27.3372C123.932 30.9417 126.056 32.9184 129.715 32.9184C132.43 32.9184 134.319 31.9882 135.145 31.4068C135.617 31.1743 135.735 30.8255 135.735 30.2441V20.7094C135.735 19.7792 135.027 18.9653 134.082 18.9653Z" fill="#111827"/>
<path d="M30.6879 11.7563C29.3895 11.0586 27.383 12.2214 26.2027 14.3143L23.9601 18.0352C23.1339 19.5468 23.252 21.4072 24.3142 22.9188L24.4323 23.035C25.4945 24.4304 26.7929 25.8257 27.265 26.2908C27.5011 26.5233 27.7371 26.8722 27.8552 27.3373C28.2092 28.6163 27.5011 30.0116 26.0847 30.3604C24.7864 30.7093 23.37 30.0116 23.0159 28.6163C22.8979 28.2675 22.8979 27.9186 22.8979 27.6861C23.0159 27.1047 22.7798 26.2908 21.9536 25.3606C21.1274 24.5466 19.593 26.1745 19.0029 27.8024V27.9186C18.5308 29.5465 18.1767 31.0581 18.2947 31.1744C18.2947 31.2906 18.4127 31.2906 18.4127 31.4069C19.1209 32.8022 18.6488 34.4301 17.2324 35.1278C15.8161 35.8254 14.1636 35.3603 13.4555 33.965C12.7473 32.5697 13.2194 30.9418 14.6358 30.2442C14.7538 30.2442 14.7538 30.1279 14.8718 30.1279C14.9898 30.1279 15.2259 29.4302 15.58 28.5C15.8161 27.6861 15.9341 27.3373 16.0521 26.9884C16.1702 26.5233 16.4062 25.3606 16.2882 24.8955C16.1702 24.3141 15.58 24.3141 14.9898 24.6629C14.6358 24.8955 13.9276 25.4768 13.6915 25.7094C13.1014 26.1745 12.6292 26.8722 12.3932 27.4535C12.2752 27.6861 12.0391 28.0349 11.803 28.2675C10.7408 29.0814 9.20636 28.9651 8.26212 27.9186C7.43591 26.8722 7.55394 25.3606 8.61621 24.4304C8.9703 24.1978 9.32439 23.9653 9.67848 23.9653C10.2686 23.849 12.3932 22.5699 13.6915 21.6397C13.9276 21.5235 14.2817 21.1746 14.3997 21.0584C14.7538 20.5932 14.3997 20.2444 14.0456 20.2444C12.9833 20.3607 11.803 20.477 11.567 20.8258C11.4489 20.9421 11.3309 21.1746 11.0948 21.2909C10.1506 21.9886 8.73424 21.756 8.02606 20.8258C7.31788 19.8956 7.55394 18.5003 8.49818 17.8026C8.85227 17.4538 9.44242 17.3375 9.79651 17.3375C10.6227 17.3375 12.7473 17.8026 14.3997 17.4538L14.8718 17.3375C16.6423 16.9887 18.7668 15.4771 19.593 13.9655C19.593 13.9655 20.4192 12.5702 21.3635 10.8261C22.4258 9.08192 22.3077 7.10523 21.2455 6.52384L19.2389 5.36108C18.1767 4.7797 16.6423 4.7797 15.58 5.36108L1.88848 13.0353C0.826212 13.6167 0 15.012 0 16.1748V31.0581C0 32.2209 0.826212 33.6162 1.88848 34.1975L15.58 41.8718C16.6423 42.4531 18.2947 42.4531 19.2389 41.8718L32.9305 34.1975C33.9927 33.6162 34.8189 32.2209 34.8189 31.0581V16.1748C34.8189 15.012 33.9927 13.6167 32.9305 13.0353C32.9305 13.0353 31.9862 12.4539 30.6879 11.7563Z" fill="#111827"/>
</g>
<defs>
<clipPath id="clip0_2025_521">
<rect width="164" height="47" fill="white"/>
</clipPath>
</defs>
</svg>
